<svg width="117" height="85" viewBox="0 0 117 85" fill="none" xmlns="http://www.w3.org/2000/svg">
<g filter="url(#filter0_d)">
<path d="M102.65 5.0625H6.35C3.3958 5.0625 1 7.32955 1 10.125V70.875C1 73.6704 3.3958 75.9375 6.35 75.9375H102.65C105.604 75.9375 108 73.6704 108 70.875V10.125C108 7.32955 105.604 5.0625 102.65 5.0625ZM30.425 51.8716V54.4219C30.425 55.1211 29.8265 55.6875 29.0875 55.6875H26.4125C25.6735 55.6875 25.075 55.1211 25.075 54.4219V51.8447C23.1875 51.753 21.3517 51.1297 19.8303 50.0491C19.1783 49.5856 19.1449 48.6617 19.735 48.1286L21.6995 46.3551C22.1626 45.9374 22.8514 45.9185 23.3931 46.2396C24.0401 46.6225 24.7741 46.8281 25.5364 46.8281H30.2361C31.3228 46.8281 32.2089 45.8916 32.2089 44.7414C32.2089 43.8001 31.6053 42.9711 30.7427 42.7275L23.2192 40.5918C20.1112 39.709 17.9394 36.8866 17.9394 33.7273C17.9394 29.8482 21.1244 26.6968 25.0733 26.5971V24.0469C25.0733 23.3476 25.6719 22.7812 26.4108 22.7812H29.0858C29.8248 22.7812 30.4233 23.3476 30.4233 24.0469V26.624C32.3109 26.7158 34.1466 27.3375 35.668 28.4196C36.32 28.8831 36.3535 29.8071 35.7633 30.3402L33.7988 32.1137C33.3357 32.5313 32.6469 32.5503 32.1052 32.2291C31.4582 31.8447 30.7243 31.6406 29.9619 31.6406H25.2622C24.1755 31.6406 23.2894 32.5772 23.2894 33.7273C23.2894 34.6686 23.893 35.4976 24.7557 35.7412L32.2791 37.877C35.3871 38.7598 37.5589 41.5821 37.5589 44.7414C37.5589 48.6221 34.374 51.772 30.425 51.8716V51.8716ZM70.55 49.3594C70.55 50.0586 69.9515 50.625 69.2125 50.625H50.4875C49.7485 50.625 49.15 50.0586 49.15 49.3594V46.8281C49.15 46.1289 49.7485 45.5625 50.4875 45.5625H69.2125C69.9515 45.5625 70.55 46.1289 70.55 46.8281V49.3594ZM97.3 49.3594C97.3 50.0586 96.7015 50.625 95.9625 50.625H82.5875C81.8485 50.625 81.25 50.0586 81.25 49.3594V46.8281C81.25 46.1289 81.8485 45.5625 82.5875 45.5625H95.9625C96.7015 45.5625 97.3 46.1289 97.3 46.8281V49.3594ZM97.3 34.1719C97.3 34.8711 96.7015 35.4375 95.9625 35.4375H50.4875C49.7485 35.4375 49.15 34.8711 49.15 34.1719V31.6406C49.15 30.9414 49.7485 30.375 50.4875 30.375H95.9625C96.7015 30.375 97.3 30.9414 97.3 31.6406V34.1719Z" fill="#FFFEFC"/>
</g>
<defs>
<filter id="filter0_d" x="0" y="-1" width="117" height="91" filterUnits="userSpaceOnUse" color-interpolation-filters="sRGB">
<feFlood flood-opacity="0" result="BackgroundImageFix"/>
<feColorMatrix in="SourceAlpha" type="matrix" values="0 0 0 0 0 0 0 0 0 0 0 0 0 0 0 0 0 0 127 0"/>
<feOffset dx="4" dy="4"/>
<feGaussianBlur stdDeviation="2.5"/>
<feColorMatrix type="matrix" values="0 0 0 0 0 0 0 0 0 0 0 0 0 0 0 0 0 0 0.25 0"/>
<feBlend mode="normal" in2="BackgroundImageFix" result="effect1_dropShadow"/>
<feBlend mode="normal" in="SourceGraphic" in2="effect1_dropShadow" result="shape"/>
</filter>
</defs>
</svg>
