<svg width="20" height="21" viewBox="0 0 20 21" fill="none" xmlns="http://www.w3.org/2000/svg">
<g filter="url(#filter0_d)">
<path d="M19 1.55078H1C0.447812 1.55078 0 2.11055 0 2.80078V17.8008C0 18.491 0.447812 19.0508 1 19.0508H19C19.5522 19.0508 20 18.491 20 17.8008V2.80078C20 2.11055 19.5522 1.55078 19 1.55078ZM5.5 13.1086V13.7383C5.5 13.9109 5.38812 14.0508 5.25 14.0508H4.75C4.61188 14.0508 4.5 13.9109 4.5 13.7383V13.102C4.14719 13.0793 3.80406 12.9254 3.51969 12.6586C3.39781 12.5441 3.39156 12.316 3.50187 12.1844L3.86906 11.7465C3.95562 11.6434 4.08437 11.6387 4.18563 11.718C4.30656 11.8125 4.44375 11.8633 4.58625 11.8633H5.46469C5.66781 11.8633 5.83344 11.632 5.83344 11.348C5.83344 11.1156 5.72062 10.9109 5.55937 10.8508L4.15312 10.3234C3.57219 10.1055 3.16625 9.40859 3.16625 8.62852C3.16625 7.6707 3.76156 6.89258 4.49969 6.86797V6.23828C4.49969 6.06563 4.61156 5.92578 4.74969 5.92578H5.24969C5.38781 5.92578 5.49969 6.06563 5.49969 6.23828V6.87461C5.8525 6.89727 6.19562 7.05078 6.48 7.31797C6.60187 7.43242 6.60812 7.66055 6.49781 7.79219L6.13062 8.23008C6.04406 8.3332 5.91531 8.33789 5.81406 8.25859C5.69313 8.16367 5.55594 8.11328 5.41344 8.11328H4.535C4.33187 8.11328 4.16625 8.34453 4.16625 8.62852C4.16625 8.86094 4.27906 9.06562 4.44031 9.12578L5.84656 9.65312C6.4275 9.87109 6.83344 10.568 6.83344 11.348C6.83344 12.3062 6.23812 13.084 5.5 13.1086ZM13 12.4883C13 12.6609 12.8881 12.8008 12.75 12.8008H9.25C9.11187 12.8008 9 12.6609 9 12.4883V11.8633C9 11.6906 9.11187 11.5508 9.25 11.5508H12.75C12.8881 11.5508 13 11.6906 13 11.8633V12.4883ZM18 12.4883C18 12.6609 17.8881 12.8008 17.75 12.8008H15.25C15.1119 12.8008 15 12.6609 15 12.4883V11.8633C15 11.6906 15.1119 11.5508 15.25 11.5508H17.75C17.8881 11.5508 18 11.6906 18 11.8633V12.4883ZM18 8.73828C18 8.91094 17.8881 9.05078 17.75 9.05078H9.25C9.11187 9.05078 9 8.91094 9 8.73828V8.11328C9 7.94063 9.11187 7.80078 9.25 7.80078H17.75C17.8881 7.80078 18 7.94063 18 8.11328V8.73828Z" fill="white"/>
</g>
<defs>
<filter id="filter0_d" x="0" y="0.300781" width="20" height="20" filterUnits="userSpaceOnUse" color-interpolation-filters="sRGB">
<feFlood flood-opacity="0" result="BackgroundImageFix"/>
<feColorMatrix in="SourceAlpha" type="matrix" values="0 0 0 0 0 0 0 0 0 0 0 0 0 0 0 0 0 0 127 0"/>
<feOffset/>
<feColorMatrix type="matrix" values="0 0 0 0 0 0 0 0 0 0 0 0 0 0 0 0 0 0 0.25 0"/>
<feBlend mode="normal" in2="BackgroundImageFix" result="effect1_dropShadow"/>
<feBlend mode="normal" in="SourceGraphic" in2="effect1_dropShadow" result="shape"/>
</filter>
</defs>
</svg>
