<svg width="23" height="23" viewBox="0 0 23 23" fill="none" xmlns="http://www.w3.org/2000/svg">
<g filter="url(#filter0_d)">
<path d="M8.95536 8.4375H7.61607C7.39509 8.4375 7.21429 8.2793 7.21429 8.08594V6.91406C7.21429 6.7207 7.39509 6.5625 7.61607 6.5625H8.95536C9.17634 6.5625 9.35714 6.7207 9.35714 6.91406V8.08594C9.35714 8.2793 9.17634 8.4375 8.95536 8.4375ZM12.5714 8.08594V6.91406C12.5714 6.7207 12.3906 6.5625 12.1696 6.5625H10.8304C10.6094 6.5625 10.4286 6.7207 10.4286 6.91406V8.08594C10.4286 8.2793 10.6094 8.4375 10.8304 8.4375H12.1696C12.3906 8.4375 12.5714 8.2793 12.5714 8.08594ZM15.7857 8.08594V6.91406C15.7857 6.7207 15.6049 6.5625 15.3839 6.5625H14.0446C13.8237 6.5625 13.6429 6.7207 13.6429 6.91406V8.08594C13.6429 8.2793 13.8237 8.4375 14.0446 8.4375H15.3839C15.6049 8.4375 15.7857 8.2793 15.7857 8.08594ZM12.5714 10.8984V9.72656C12.5714 9.5332 12.3906 9.375 12.1696 9.375H10.8304C10.6094 9.375 10.4286 9.5332 10.4286 9.72656V10.8984C10.4286 11.0918 10.6094 11.25 10.8304 11.25H12.1696C12.3906 11.25 12.5714 11.0918 12.5714 10.8984ZM9.35714 10.8984V9.72656C9.35714 9.5332 9.17634 9.375 8.95536 9.375H7.61607C7.39509 9.375 7.21429 9.5332 7.21429 9.72656V10.8984C7.21429 11.0918 7.39509 11.25 7.61607 11.25H8.95536C9.17634 11.25 9.35714 11.0918 9.35714 10.8984ZM15.7857 10.8984V9.72656C15.7857 9.5332 15.6049 9.375 15.3839 9.375H14.0446C13.8237 9.375 13.6429 9.5332 13.6429 9.72656V10.8984C13.6429 11.0918 13.8237 11.25 14.0446 11.25H15.3839C15.6049 11.25 15.7857 11.0918 15.7857 10.8984ZM19 3.28125V13.5938C19 14.3701 18.2801 15 17.3929 15H5.60714C4.71987 15 4 14.3701 4 13.5938V3.28125C4 2.50488 4.71987 1.875 5.60714 1.875H7.21429V0.351562C7.21429 0.158203 7.39509 0 7.61607 0H8.95536C9.17634 0 9.35714 0.158203 9.35714 0.351562V1.875H13.6429V0.351562C13.6429 0.158203 13.8237 0 14.0446 0H15.3839C15.6049 0 15.7857 0.158203 15.7857 0.351562V1.875H17.3929C18.2801 1.875 19 2.50488 19 3.28125ZM17.3929 13.418V4.6875H5.60714V13.418C5.60714 13.5146 5.69754 13.5938 5.80804 13.5938H17.192C17.3025 13.5938 17.3929 13.5146 17.3929 13.418Z" fill="#FFB800"/>
</g>
<defs>
<filter id="filter0_d" x="0" y="0" width="23" height="23" filterUnits="userSpaceOnUse" color-interpolation-filters="sRGB">
<feFlood flood-opacity="0" result="BackgroundImageFix"/>
<feColorMatrix in="SourceAlpha" type="matrix" values="0 0 0 0 0 0 0 0 0 0 0 0 0 0 0 0 0 0 127 0"/>
<feOffset dy="4"/>
<feGaussianBlur stdDeviation="2"/>
<feColorMatrix type="matrix" values="0 0 0 0 0 0 0 0 0 0 0 0 0 0 0 0 0 0 0.25 0"/>
<feBlend mode="normal" in2="BackgroundImageFix" result="effect1_dropShadow"/>
<feBlend mode="normal" in="SourceGraphic" in2="effect1_dropShadow" result="shape"/>
</filter>
</defs>
</svg>
