<svg width="117" height="91" viewBox="0 0 117 91" fill="none" xmlns="http://www.w3.org/2000/svg">
<g filter="url(#filter0_d)">
<path d="M99.0648 1H9.93524C4.99392 1 1 4.88728 1 9.67857V73.3214C1 78.1127 4.99392 82 9.93524 82H99.0648C104.006 82 108 78.1127 108 73.3214V9.67857C108 4.88728 104.006 1 99.0648 1ZM11.0498 9.67857H97.9502C98.5632 9.67857 99.0648 10.1667 99.0648 10.7634V18.3571H9.93524V10.7634C9.93524 10.1667 10.4368 9.67857 11.0498 9.67857ZM97.9502 73.3214H11.0498C10.4368 73.3214 9.93524 72.8333 9.93524 72.2366V41.5H99.0648V72.2366C99.0648 72.8333 98.5632 73.3214 97.9502 73.3214ZM36.6667 55.2411V62.4732C36.6667 63.6665 35.6635 64.6429 34.4375 64.6429H21.0625C19.8365 64.6429 18.8333 63.6665 18.8333 62.4732V55.2411C18.8333 54.0478 19.8365 53.0714 21.0625 53.0714H34.4375C35.6635 53.0714 36.6667 54.0478 36.6667 55.2411ZM72.3333 55.2411V62.4732C72.3333 63.6665 71.3302 64.6429 70.1042 64.6429H44.8403C43.6142 64.6429 42.6111 63.6665 42.6111 62.4732V55.2411C42.6111 54.0478 43.6142 53.0714 44.8403 53.0714H70.1042C71.3302 53.0714 72.3333 54.0478 72.3333 55.2411Z" fill="#FFFEFC"/>
</g>
<defs>
<filter id="filter0_d" x="0" y="0" width="117" height="91" filterUnits="userSpaceOnUse" color-interpolation-filters="sRGB">
<feFlood flood-opacity="0" result="BackgroundImageFix"/>
<feColorMatrix in="SourceAlpha" type="matrix" values="0 0 0 0 0 0 0 0 0 0 0 0 0 0 0 0 0 0 127 0"/>
<feOffset dx="4" dy="4"/>
<feGaussianBlur stdDeviation="2.5"/>
<feColorMatrix type="matrix" values="0 0 0 0 0 0 0 0 0 0 0 0 0 0 0 0 0 0 0.25 0"/>
<feBlend mode="normal" in2="BackgroundImageFix" result="effect1_dropShadow"/>
<feBlend mode="normal" in="SourceGraphic" in2="effect1_dropShadow" result="shape"/>
</filter>
</defs>
</svg>
