<svg width="20" height="21" viewBox="0 0 20 21" fill="none" xmlns="http://www.w3.org/2000/svg">
<path d="M18.3299 0.300781H1.67014C0.746528 0.300781 0 1.2606 0 2.44364V18.1579C0 19.341 0.746528 20.3008 1.67014 20.3008H18.3299C19.2535 20.3008 20 19.341 20 18.1579V2.44364C20 1.2606 19.2535 0.300781 18.3299 0.300781ZM1.87847 2.44364H18.1215C18.2361 2.44364 18.3299 2.56417 18.3299 2.7115V4.5865H1.67014V2.7115C1.67014 2.56417 1.76389 2.44364 1.87847 2.44364ZM18.1215 18.1579H1.87847C1.76389 18.1579 1.67014 18.0374 1.67014 17.8901V10.3008H18.3299V17.8901C18.3299 18.0374 18.2361 18.1579 18.1215 18.1579ZM6.66667 13.6936V15.4794C6.66667 15.774 6.47917 16.0151 6.25 16.0151H3.75C3.52083 16.0151 3.33333 15.774 3.33333 15.4794V13.6936C3.33333 13.399 3.52083 13.1579 3.75 13.1579H6.25C6.47917 13.1579 6.66667 13.399 6.66667 13.6936ZM13.3333 13.6936V15.4794C13.3333 15.774 13.1458 16.0151 12.9167 16.0151H8.19444C7.96528 16.0151 7.77778 15.774 7.77778 15.4794V13.6936C7.77778 13.399 7.96528 13.1579 8.19444 13.1579H12.9167C13.1458 13.1579 13.3333 13.399 13.3333 13.6936Z" fill="white"/>
</svg>
