<svg width="117" height="91" viewBox="0 0 117 91" fill="none" xmlns="http://www.w3.org/2000/svg">
<g filter="url(#filter0_d)">
<path d="M54.5 1C24.9456 1 1 19.127 1 41.5C1 63.873 24.9456 82 54.5 82C84.0544 82 108 63.873 108 41.5C108 19.127 84.0544 1 54.5 1ZM54.5 16.6774C64.9843 16.6774 73.4839 23.1117 73.4839 31.0484C73.4839 38.9851 64.9843 45.4194 54.5 45.4194C44.0157 45.4194 35.5161 38.9851 35.5161 31.0484C35.5161 23.1117 44.0157 16.6774 54.5 16.6774ZM54.5 72.8548C41.8369 72.8548 30.4897 68.5109 22.8962 61.7173C26.9518 55.9363 34.8905 51.9516 44.1452 51.9516C44.6629 51.9516 45.1806 52.0169 45.6768 52.1313C48.4813 52.8171 51.4151 53.2581 54.5 53.2581C57.5849 53.2581 60.5403 52.8171 63.3232 52.1313C63.8194 52.0169 64.3371 51.9516 64.8548 51.9516C74.1095 51.9516 82.0482 55.9363 86.1038 61.7173C78.5103 68.5109 67.1631 72.8548 54.5 72.8548Z" fill="#FFFEFC"/>
</g>
<defs>
<filter id="filter0_d" x="0" y="0" width="117" height="91" filterUnits="userSpaceOnUse" color-interpolation-filters="sRGB">
<feFlood flood-opacity="0" result="BackgroundImageFix"/>
<feColorMatrix in="SourceAlpha" type="matrix" values="0 0 0 0 0 0 0 0 0 0 0 0 0 0 0 0 0 0 127 0"/>
<feOffset dx="4" dy="4"/>
<feGaussianBlur stdDeviation="2.5"/>
<feColorMatrix type="matrix" values="0 0 0 0 0 0 0 0 0 0 0 0 0 0 0 0 0 0 0.25 0"/>
<feBlend mode="normal" in2="BackgroundImageFix" result="effect1_dropShadow"/>
<feBlend mode="normal" in="SourceGraphic" in2="effect1_dropShadow" result="shape"/>
</filter>
</defs>
</svg>
