<svg width="61" height="61" viewBox="0 0 61 61" fill="none" xmlns="http://www.w3.org/2000/svg">
<path d="M12.8154 38.5471C12.8154 42.0737 9.93429 44.9548 6.40772 44.9548C2.88116 44.9548 0 42.0737 0 38.5471C0 35.0205 2.88116 32.1394 6.40772 32.1394H12.8154V38.5471ZM16.0452 38.5471C16.0452 35.0205 18.9263 32.1394 22.4529 32.1394C25.9795 32.1394 28.8606 35.0205 28.8606 38.5471V54.5923C28.8606 58.1188 25.9795 61 22.4529 61C18.9263 61 16.0452 58.1188 16.0452 54.5923V38.5471ZM22.4529 12.8154C18.9263 12.8154 16.0452 9.93429 16.0452 6.40772C16.0452 2.88116 18.9263 0 22.4529 0C25.9795 0 28.8606 2.88116 28.8606 6.40772V12.8154H22.4529ZM22.4529 16.0452C25.9795 16.0452 28.8606 18.9263 28.8606 22.4529C28.8606 25.9795 25.9795 28.8606 22.4529 28.8606H6.40772C2.88116 28.8606 0 25.9795 0 22.4529C0 18.9263 2.88116 16.0452 6.40772 16.0452H22.4529ZM48.1846 22.4529C48.1846 18.9263 51.0657 16.0452 54.5923 16.0452C58.1188 16.0452 61 18.9263 61 22.4529C61 25.9795 58.1188 28.8606 54.5923 28.8606H48.1846V22.4529ZM44.9548 22.4529C44.9548 25.9795 42.0737 28.8606 38.5471 28.8606C35.0205 28.8606 32.1394 25.9795 32.1394 22.4529V6.40772C32.1394 2.88116 35.0205 0 38.5471 0C42.0737 0 44.9548 2.88116 44.9548 6.40772V22.4529ZM38.5471 48.1846C42.0737 48.1846 44.9548 51.0657 44.9548 54.5923C44.9548 58.1188 42.0737 61 38.5471 61C35.0205 61 32.1394 58.1188 32.1394 54.5923V48.1846H38.5471ZM38.5471 44.9548C35.0205 44.9548 32.1394 42.0737 32.1394 38.5471C32.1394 35.0205 35.0205 32.1394 38.5471 32.1394H54.5923C58.1188 32.1394 61 35.0205 61 38.5471C61 42.0737 58.1188 44.9548 54.5923 44.9548H38.5471Z" fill="url(#paint0_linear)"/>
<defs>
<linearGradient id="paint0_linear" x1="30.5" y1="0" x2="30.5" y2="61" gradientUnits="userSpaceOnUse">
<stop offset="0.0520833"/>
<stop offset="0.442708" stop-color="#646464"/>
<stop offset="1" stop-opacity="0.8"/>
</linearGradient>
</defs>
</svg>
