<svg width="80" height="80" viewBox="0 0 80 80" fill="none" xmlns="http://www.w3.org/2000/svg">
<path d="M16.8071 50.5536C16.8071 55.1786 13.0286 58.9571 8.40357 58.9571C3.77857 58.9571 0 55.1786 0 50.5536C0 45.9286 3.77857 42.15 8.40357 42.15H16.8071V50.5536ZM21.0429 50.5536C21.0429 45.9286 24.8214 42.15 29.4464 42.15C34.0714 42.15 37.85 45.9286 37.85 50.5536V71.5964C37.85 76.2214 34.0714 80 29.4464 80C24.8214 80 21.0429 76.2214 21.0429 71.5964V50.5536ZM29.4464 16.8071C24.8214 16.8071 21.0429 13.0286 21.0429 8.40357C21.0429 3.77857 24.8214 0 29.4464 0C34.0714 0 37.85 3.77857 37.85 8.40357V16.8071H29.4464ZM29.4464 21.0429C34.0714 21.0429 37.85 24.8214 37.85 29.4464C37.85 34.0714 34.0714 37.85 29.4464 37.85H8.40357C3.77857 37.85 0 34.0714 0 29.4464C0 24.8214 3.77857 21.0429 8.40357 21.0429H29.4464ZM63.1929 29.4464C63.1929 24.8214 66.9714 21.0429 71.5964 21.0429C76.2214 21.0429 80 24.8214 80 29.4464C80 34.0714 76.2214 37.85 71.5964 37.85H63.1929V29.4464ZM58.9571 29.4464C58.9571 34.0714 55.1786 37.85 50.5536 37.85C45.9286 37.85 42.15 34.0714 42.15 29.4464V8.40357C42.15 3.77857 45.9286 0 50.5536 0C55.1786 0 58.9571 3.77857 58.9571 8.40357V29.4464ZM50.5536 63.1929C55.1786 63.1929 58.9571 66.9714 58.9571 71.5964C58.9571 76.2214 55.1786 80 50.5536 80C45.9286 80 42.15 76.2214 42.15 71.5964V63.1929H50.5536ZM50.5536 58.9571C45.9286 58.9571 42.15 55.1786 42.15 50.5536C42.15 45.9286 45.9286 42.15 50.5536 42.15H71.5964C76.2214 42.15 80 45.9286 80 50.5536C80 55.1786 76.2214 58.9571 71.5964 58.9571H50.5536Z" fill="url(#paint0_linear)"/>
<defs>
<linearGradient id="paint0_linear" x1="40" y1="0" x2="40" y2="80" gradientUnits="userSpaceOnUse">
<stop offset="0.0520833"/>
<stop offset="0.442708" stop-color="#646464"/>
<stop offset="1" stop-opacity="0.8"/>
</linearGradient>
</defs>
</svg>
