<svg width="20" height="21" viewBox="0 0 20 21" fill="none" xmlns="http://www.w3.org/2000/svg">
<path d="M9.73484 5.48931L3.3336 12.2691V19.5864C3.3336 19.7759 3.39212 19.9576 3.4963 20.0915C3.60048 20.2255 3.74178 20.3008 3.88911 20.3008L7.77978 20.2878C7.92663 20.2869 8.06722 20.2112 8.17079 20.0773C8.27437 19.9435 8.33252 19.7623 8.33252 19.5735V15.3002C8.33252 15.1108 8.39104 14.9291 8.49522 14.7951C8.5994 14.6611 8.7407 14.5859 8.88803 14.5859H11.1101C11.2574 14.5859 11.3987 14.6611 11.5029 14.7951C11.6071 14.9291 11.6656 15.1108 11.6656 15.3002V19.5703C11.6654 19.6643 11.6796 19.7575 11.7074 19.8444C11.7352 19.9313 11.7761 20.0103 11.8277 20.0769C11.8793 20.1435 11.9406 20.1963 12.0081 20.2324C12.0756 20.2684 12.148 20.2869 12.2211 20.2869L16.1104 20.3008C16.2577 20.3008 16.399 20.2255 16.5032 20.0915C16.6074 19.9576 16.6659 19.7759 16.6659 19.5864V12.2642L10.266 5.48931C10.1908 5.41132 10.0971 5.36879 10.0004 5.36879C9.90381 5.36879 9.81008 5.41132 9.73484 5.48931V5.48931ZM19.8462 10.0974L16.9437 7.02073V0.836555C16.9437 0.694459 16.8998 0.558183 16.8216 0.457706C16.7435 0.357229 16.6375 0.300781 16.527 0.300781H14.5827C14.4722 0.300781 14.3663 0.357229 14.2881 0.457706C14.21 0.558183 14.1661 0.694459 14.1661 0.836555V4.07843L11.0577 0.789675C10.7594 0.474006 10.385 0.301412 9.99871 0.301412C9.61239 0.301412 9.23807 0.474006 8.93976 0.789675L0.151203 10.0974C0.109015 10.1423 0.0741102 10.1973 0.0484844 10.2595C0.0228586 10.3217 0.00701361 10.3898 0.00185477 10.4599C-0.00330407 10.53 0.00232436 10.6006 0.0184184 10.6679C0.0345125 10.7352 0.0607569 10.7977 0.0956519 10.852L0.981 12.236C1.0158 12.2905 1.0586 12.3355 1.10696 12.3686C1.15532 12.4017 1.20828 12.4223 1.26282 12.429C1.31735 12.4358 1.37239 12.4286 1.42477 12.408C1.47716 12.3874 1.52587 12.3537 1.56811 12.3088L9.73484 3.65875C9.81008 3.58076 9.90381 3.53823 10.0004 3.53823C10.0971 3.53823 10.1908 3.58076 10.266 3.65875L18.4331 12.3088C18.4753 12.3537 18.5239 12.3874 18.5762 12.4081C18.6286 12.4288 18.6835 12.4361 18.738 12.4294C18.7925 12.4228 18.8455 12.4024 18.8938 12.3695C18.9422 12.3365 18.985 12.2916 19.0199 12.2374L19.9052 10.8533C19.9401 10.7988 19.9662 10.7359 19.9821 10.6683C19.998 10.6008 20.0034 10.5298 19.9979 10.4596C19.9924 10.3893 19.9762 10.3212 19.9502 10.259C19.9241 10.1969 19.8888 10.1419 19.8462 10.0974V10.0974Z" fill="white"/>
</svg>
