<svg width="47" height="34" viewBox="0 0 47 34" fill="none" xmlns="http://www.w3.org/2000/svg">
<path d="M42.5938 0H4.40625C1.97271 0 0 1.90276 0 4.25V29.75C0 32.0972 1.97271 34 4.40625 34H42.5938C45.0273 34 47 32.0972 47 29.75V4.25C47 1.90276 45.0273 0 42.5938 0ZM42.5938 4.25V7.86294C40.5355 9.47962 37.2541 11.9935 30.2391 17.2917C28.6931 18.4647 25.6308 21.2825 23.5 21.2496C21.3696 21.2829 18.3062 18.4642 16.7609 17.2917C9.74699 11.9943 6.46479 9.47989 4.40625 7.86294V4.25H42.5938ZM4.40625 29.75V13.3165C6.50968 14.9325 9.49262 17.2001 14.0392 20.6341C16.0456 22.1575 19.5593 25.5204 23.5 25.4999C27.4213 25.5204 30.8905 22.2062 32.9599 20.6348C37.5065 17.2009 40.4902 14.9326 42.5938 13.3166V29.75H4.40625Z" fill="#FFB800"/>
</svg>
