<svg width="41" height="40" viewBox="0 0 41 40" fill="none" xmlns="http://www.w3.org/2000/svg">
<path d="M20.5 7.74194C16.119 7.74194 12.5645 11.2097 12.5645 15.4839C12.5645 19.7581 16.119 23.2258 20.5 23.2258C24.8811 23.2258 28.4355 19.7581 28.4355 15.4839C28.4355 11.2097 24.8811 7.74194 20.5 7.74194ZM20.5 19.3548C18.3095 19.3548 16.5323 17.621 16.5323 15.4839C16.5323 13.3468 18.3095 11.6129 20.5 11.6129C22.6905 11.6129 24.4677 13.3468 24.4677 15.4839C24.4677 17.621 22.6905 19.3548 20.5 19.3548ZM20.5 0C9.1754 0 0 8.95161 0 20C0 31.0484 9.1754 40 20.5 40C31.8246 40 41 31.0484 41 20C41 8.95161 31.8246 0 20.5 0ZM20.5 36.129C16.3917 36.129 12.6389 34.6532 9.74577 32.2258C10.9774 30.371 13.0853 29.1129 15.499 29.0403C17.2183 29.5565 18.855 29.8145 20.5 29.8145C22.145 29.8145 23.7817 29.5645 25.501 29.0403C27.9147 29.121 30.0226 30.371 31.2542 32.2258C28.3611 34.6532 24.6083 36.129 20.5 36.129ZM33.949 29.3468C31.9321 26.8145 28.8157 25.1613 25.2613 25.1613C24.4181 25.1613 23.1121 25.9355 20.5 25.9355C17.8962 25.9355 16.5819 25.1613 15.7387 25.1613C12.1925 25.1613 9.07621 26.8145 7.05101 29.3468C5.11673 26.7097 3.96774 23.4839 3.96774 20C3.96774 11.1048 11.3825 3.87097 20.5 3.87097C29.6175 3.87097 37.0323 11.1048 37.0323 20C37.0323 23.4839 35.8833 26.7097 33.949 29.3468Z" fill="#FFB800"/>
</svg>
