<svg width="20" height="21" viewBox="0 0 20 21" fill="none" xmlns="http://www.w3.org/2000/svg">
<path d="M18.5714 0.300781H1.42857C1.04969 0.300781 0.686328 0.451291 0.418419 0.7192C0.15051 0.987109 0 1.35047 0 1.72935L0 18.8722C0 19.2511 0.15051 19.6145 0.418419 19.8824C0.686328 20.1503 1.04969 20.3008 1.42857 20.3008H18.5714C18.9503 20.3008 19.3137 20.1503 19.5816 19.8824C19.8495 19.6145 20 19.2511 20 18.8722V1.72935C20 1.35047 19.8495 0.987109 19.5816 0.7192C19.3137 0.451291 18.9503 0.300781 18.5714 0.300781ZM17.1429 3.15792V8.87221H11.4286V3.15792H17.1429ZM8.57143 3.15792V8.87221H2.85714V3.15792H8.57143ZM2.85714 17.4436V11.7294H8.57143V17.4436H2.85714ZM11.4286 17.4436V11.7294H17.1429V17.4436H11.4286Z" fill="white"/>
</svg>
