<svg width="117" height="91" viewBox="0 0 117 91" fill="none" xmlns="http://www.w3.org/2000/svg">
<g filter="url(#filter0_d)">
<path d="M35.775 51.625H99.975C101.446 51.625 102.65 50.4859 102.65 49.0938V8.59375C102.65 7.20156 101.446 6.0625 99.975 6.0625H75.9V26.3125L67.875 21.25L59.85 26.3125V6.0625H35.775C34.3037 6.0625 33.1 7.20156 33.1 8.59375V49.0938C33.1 50.4859 34.3037 51.625 35.775 51.625ZM105.325 61.75H22.4V3.53125C22.4 2.13906 21.1962 1 19.725 1H3.675C2.20375 1 1 2.13906 1 3.53125V8.59375C1 9.98594 2.20375 11.125 3.675 11.125H11.7V69.3438C11.7 70.7359 12.9037 71.875 14.375 71.875H28.2348C27.9339 72.666 27.75 73.5203 27.75 74.4062C27.75 78.5986 31.3445 82 35.775 82C40.2055 82 43.8 78.5986 43.8 74.4062C43.8 73.5203 43.5994 72.666 43.3152 71.875H76.4016C76.1006 72.666 75.9167 73.5203 75.9167 74.4062C75.9167 78.5986 79.5112 82 83.9417 82C88.3722 82 91.9667 78.5986 91.9667 74.4062C91.9667 73.5203 91.7661 72.666 91.4819 71.875H105.325C106.796 71.875 108 70.7359 108 69.3438V64.2812C108 62.8891 106.796 61.75 105.325 61.75Z" fill="#FFFEFC"/>
</g>
<defs>
<filter id="filter0_d" x="0" y="0" width="117" height="91" filterUnits="userSpaceOnUse" color-interpolation-filters="sRGB">
<feFlood flood-opacity="0" result="BackgroundImageFix"/>
<feColorMatrix in="SourceAlpha" type="matrix" values="0 0 0 0 0 0 0 0 0 0 0 0 0 0 0 0 0 0 127 0"/>
<feOffset dx="4" dy="4"/>
<feGaussianBlur stdDeviation="2.5"/>
<feColorMatrix type="matrix" values="0 0 0 0 0 0 0 0 0 0 0 0 0 0 0 0 0 0 0.25 0"/>
<feBlend mode="normal" in2="BackgroundImageFix" result="effect1_dropShadow"/>
<feBlend mode="normal" in="SourceGraphic" in2="effect1_dropShadow" result="shape"/>
</filter>
</defs>
</svg>
