<svg width="20" height="21" viewBox="0 0 20 21" fill="none" xmlns="http://www.w3.org/2000/svg">
<path d="M6.5 12.8008H18.5C18.775 12.8008 19 12.5195 19 12.1758V2.17578C19 1.83203 18.775 1.55078 18.5 1.55078H14V6.55078L12.5 5.30078L11 6.55078V1.55078H6.5C6.225 1.55078 6 1.83203 6 2.17578V12.1758C6 12.5195 6.225 12.8008 6.5 12.8008ZM19.5 15.3008H4V0.925781C4 0.582031 3.775 0.300781 3.5 0.300781H0.5C0.225 0.300781 0 0.582031 0 0.925781V2.17578C0 2.51953 0.225 2.80078 0.5 2.80078H2V17.1758C2 17.5195 2.225 17.8008 2.5 17.8008H5.09062C5.03437 17.9961 5 18.207 5 18.4258C5 19.4609 5.67188 20.3008 6.5 20.3008C7.32812 20.3008 8 19.4609 8 18.4258C8 18.207 7.9625 17.9961 7.90938 17.8008H14.0938C14.0375 17.9961 14.0031 18.207 14.0031 18.4258C14.0031 19.4609 14.675 20.3008 15.5031 20.3008C16.3312 20.3008 17.0031 19.4609 17.0031 18.4258C17.0031 18.207 16.9656 17.9961 16.9125 17.8008H19.5C19.775 17.8008 20 17.5195 20 17.1758V15.9258C20 15.582 19.775 15.3008 19.5 15.3008Z" fill="white"/>
</svg>
