<svg width="117" height="91" viewBox="0 0 117 91" fill="none" xmlns="http://www.w3.org/2000/svg">
<g filter="url(#filter0_d)">
<path d="M100.357 1H8.64286C6.61585 1 4.67185 1.60956 3.23854 2.6946C1.80523 3.77963 1 5.25125 1 6.78571L1 76.2143C1 77.7488 1.80523 79.2204 3.23854 80.3054C4.67185 81.3904 6.61585 82 8.64286 82H100.357C102.384 82 104.328 81.3904 105.761 80.3054C107.195 79.2204 108 77.7488 108 76.2143V6.78571C108 5.25125 107.195 3.77963 105.761 2.6946C104.328 1.60956 102.384 1 100.357 1ZM92.7143 12.5714V35.7143H62.1429V12.5714H92.7143ZM46.8571 12.5714V35.7143H16.2857V12.5714H46.8571ZM16.2857 70.4286V47.2857H46.8571V70.4286H16.2857ZM62.1429 70.4286V47.2857H92.7143V70.4286H62.1429Z" fill="#FFFEFC"/>
</g>
<defs>
<filter id="filter0_d" x="0" y="0" width="117" height="91" filterUnits="userSpaceOnUse" color-interpolation-filters="sRGB">
<feFlood flood-opacity="0" result="BackgroundImageFix"/>
<feColorMatrix in="SourceAlpha" type="matrix" values="0 0 0 0 0 0 0 0 0 0 0 0 0 0 0 0 0 0 127 0"/>
<feOffset dx="4" dy="4"/>
<feGaussianBlur stdDeviation="2.5"/>
<feColorMatrix type="matrix" values="0 0 0 0 0 0 0 0 0 0 0 0 0 0 0 0 0 0 0.25 0"/>
<feBlend mode="normal" in2="BackgroundImageFix" result="effect1_dropShadow"/>
<feBlend mode="normal" in="SourceGraphic" in2="effect1_dropShadow" result="shape"/>
</filter>
</defs>
</svg>
