<svg width="23" height="23" viewBox="0 0 23 23" fill="none" xmlns="http://www.w3.org/2000/svg">
<g filter="url(#filter0_d)">
<path d="M5.40625 0H17.5938C18.3704 0 19 0.719531 19 1.60714V13.3929C19 14.2805 18.3704 15 17.5938 15H5.40625C4.62959 15 4 14.2805 4 13.3929V1.60714C4 0.719531 4.62959 0 5.40625 0ZM5.58203 13.3929H17.418C17.4646 13.3929 17.5093 13.3717 17.5423 13.334C17.5752 13.2963 17.5938 13.2452 17.5938 13.192V1.80804C17.5938 1.75476 17.5752 1.70366 17.5423 1.66598C17.5093 1.62831 17.4646 1.60714 17.418 1.60714H5.58203C5.53541 1.60714 5.4907 1.62831 5.45774 1.66598C5.42477 1.70366 5.40625 1.75476 5.40625 1.80804V13.192C5.40625 13.2452 5.42477 13.2963 5.45774 13.334C5.4907 13.3717 5.53541 13.3929 5.58203 13.3929ZM6.8125 10.3125V11.1161C6.8125 11.338 6.96991 11.5179 7.16406 11.5179H13.0234C13.2176 11.5179 13.375 11.338 13.375 11.1161V10.3125C13.375 10.0906 13.2176 9.91071 13.0234 9.91071H7.16406C6.96991 9.91071 6.8125 10.0906 6.8125 10.3125ZM6.8125 7.09821V7.90179C6.8125 8.12367 6.96991 8.30357 7.16406 8.30357H13.0234C13.2176 8.30357 13.375 8.12367 13.375 7.90179V7.09821C13.375 6.87633 13.2176 6.69643 13.0234 6.69643H7.16406C6.96991 6.69643 6.8125 6.87633 6.8125 7.09821ZM6.8125 3.88393V4.6875C6.8125 4.90939 6.96991 5.08929 7.16406 5.08929H13.0234C13.2176 5.08929 13.375 4.90939 13.375 4.6875V3.88393C13.375 3.66204 13.2176 3.48214 13.0234 3.48214H7.16406C6.96991 3.48214 6.8125 3.66204 6.8125 3.88393ZM14.1953 4.28571C14.1953 4.95141 14.6675 5.49107 15.25 5.49107C15.8325 5.49107 16.3047 4.95141 16.3047 4.28571C16.3047 3.62002 15.8325 3.08036 15.25 3.08036C14.6675 3.08036 14.1953 3.62002 14.1953 4.28571ZM14.1953 7.5C14.1953 8.16569 14.6675 8.70536 15.25 8.70536C15.8325 8.70536 16.3047 8.16569 16.3047 7.5C16.3047 6.83431 15.8325 6.29464 15.25 6.29464C14.6675 6.29464 14.1953 6.83431 14.1953 7.5ZM14.1953 10.7143C14.1953 11.38 14.6675 11.9196 15.25 11.9196C15.8325 11.9196 16.3047 11.38 16.3047 10.7143C16.3047 10.0486 15.8325 9.50893 15.25 9.50893C14.6675 9.50893 14.1953 10.0486 14.1953 10.7143Z" fill="#FFB800"/>
</g>
<defs>
<filter id="filter0_d" x="0" y="0" width="23" height="23" filterUnits="userSpaceOnUse" color-interpolation-filters="sRGB">
<feFlood flood-opacity="0" result="BackgroundImageFix"/>
<feColorMatrix in="SourceAlpha" type="matrix" values="0 0 0 0 0 0 0 0 0 0 0 0 0 0 0 0 0 0 127 0"/>
<feOffset dy="4"/>
<feGaussianBlur stdDeviation="2"/>
<feColorMatrix type="matrix" values="0 0 0 0 0 0 0 0 0 0 0 0 0 0 0 0 0 0 0.25 0"/>
<feBlend mode="normal" in2="BackgroundImageFix" result="effect1_dropShadow"/>
<feBlend mode="normal" in="SourceGraphic" in2="effect1_dropShadow" result="shape"/>
</filter>
</defs>
</svg>
