<svg width="23" height="23" viewBox="0 0 23 23" fill="none" xmlns="http://www.w3.org/2000/svg">
<path d="M4.83205 14.5342C4.83205 15.8638 3.74571 16.9502 2.41603 16.9502C1.08634 16.9502 0 15.8638 0 14.5342C0 13.2045 1.08634 12.1181 2.41603 12.1181H4.83205V14.5342ZM6.04982 14.5342C6.04982 13.2045 7.13616 12.1181 8.46585 12.1181C9.79554 12.1181 10.8819 13.2045 10.8819 14.5342V20.584C10.8819 21.9137 9.79554 23 8.46585 23C7.13616 23 6.04982 21.9137 6.04982 20.584V14.5342ZM8.46585 4.83205C7.13616 4.83205 6.04982 3.74571 6.04982 2.41603C6.04982 1.08634 7.13616 0 8.46585 0C9.79554 0 10.8819 1.08634 10.8819 2.41603V4.83205H8.46585ZM8.46585 6.04982C9.79554 6.04982 10.8819 7.13616 10.8819 8.46585C10.8819 9.79554 9.79554 10.8819 8.46585 10.8819H2.41603C1.08634 10.8819 0 9.79554 0 8.46585C0 7.13616 1.08634 6.04982 2.41603 6.04982H8.46585ZM18.1679 8.46585C18.1679 7.13616 19.2543 6.04982 20.584 6.04982C21.9137 6.04982 23 7.13616 23 8.46585C23 9.79554 21.9137 10.8819 20.584 10.8819H18.1679V8.46585ZM16.9502 8.46585C16.9502 9.79554 15.8638 10.8819 14.5342 10.8819C13.2045 10.8819 12.1181 9.79554 12.1181 8.46585V2.41603C12.1181 1.08634 13.2045 0 14.5342 0C15.8638 0 16.9502 1.08634 16.9502 2.41603V8.46585ZM14.5342 18.1679C15.8638 18.1679 16.9502 19.2543 16.9502 20.584C16.9502 21.9137 15.8638 23 14.5342 23C13.2045 23 12.1181 21.9137 12.1181 20.584V18.1679H14.5342ZM14.5342 16.9502C13.2045 16.9502 12.1181 15.8638 12.1181 14.5342C12.1181 13.2045 13.2045 12.1181 14.5342 12.1181H20.584C21.9137 12.1181 23 13.2045 23 14.5342C23 15.8638 21.9137 16.9502 20.584 16.9502H14.5342Z" fill="url(#paint0_linear)"/>
<defs>
<linearGradient id="paint0_linear" x1="11.5" y1="0" x2="11.5" y2="23" gradientUnits="userSpaceOnUse">
<stop offset="0.0520833" stop-color="#FFB800"/>
<stop offset="0.442708" stop-color="#FFF851"/>
<stop offset="1" stop-color="#FF7A00" stop-opacity="0.8"/>
</linearGradient>
</defs>
</svg>
