<svg width="12" height="15" viewBox="0 0 12 15" fill="none" xmlns="http://www.w3.org/2000/svg">
<path d="M11.7727 4.95312C11.8641 4.83203 12 4.94531 12 5.13672V13.125C12 14.1602 11.4961 15 10.875 15H1.125C0.503906 15 0 14.1602 0 13.125V5.14062C0 4.94531 0.133594 4.83594 0.227344 4.95703C0.752344 5.63672 1.44844 6.5 3.83906 9.39453C4.33359 9.99609 5.16797 11.2617 6 11.2539C6.83672 11.2656 7.6875 9.97266 8.16328 9.39453C10.5539 6.5 11.2477 5.63281 11.7727 4.95312ZM6 10C6.54375 10.0156 7.32656 8.85938 7.72031 8.38281C10.8305 4.62109 11.0672 4.29297 11.7844 3.35547C11.9203 3.17969 12 2.90625 12 2.61719V1.875C12 0.839844 11.4961 0 10.875 0H1.125C0.503906 0 0 0.839844 0 1.875V2.61719C0 2.90625 0.0796875 3.17578 0.215625 3.35547C0.932812 4.28906 1.16953 4.62109 4.27969 8.38281C4.67344 8.85938 5.45625 10.0156 6 10Z" fill="white"/>
</svg>
