<svg width="18" height="21" viewBox="0 0 18 21" fill="none" xmlns="http://www.w3.org/2000/svg">
<path d="M9 20.3008C10.4191 20.3008 11.5702 19.1816 11.5702 17.8008H6.42978C6.42978 19.1816 7.5809 20.3008 9 20.3008ZM17.654 14.4527C16.8778 13.6418 15.4253 12.4219 15.4253 8.42578C15.4253 5.39062 13.2364 2.96094 10.2849 2.36484V1.55078C10.2849 0.860547 9.70955 0.300781 9 0.300781C8.29045 0.300781 7.71509 0.860547 7.71509 1.55078V2.36484C4.76358 2.96094 2.57466 5.39062 2.57466 8.42578C2.57466 12.4219 1.12221 13.6418 0.345964 14.4527C0.104894 14.7047 -0.00198114 15.0059 2.77789e-05 15.3008C0.00444741 15.9414 0.521544 16.5508 1.28976 16.5508H16.7102C17.4785 16.5508 17.996 15.9414 18 15.3008C18.002 15.0059 17.8951 14.7043 17.654 14.4527Z" fill="#F5F5F5"/>
</svg>
