<svg width="23" height="23" viewBox="0 0 23 23" fill="none" xmlns="http://www.w3.org/2000/svg">
<g filter="url(#filter0_d)">
<path d="M18.25 0H4.75C4.33586 0 4 0.479799 4 1.07143V13.9286C4 14.5202 4.33586 15 4.75 15H18.25C18.6641 15 19 14.5202 19 13.9286V1.07143C19 0.479799 18.6641 0 18.25 0ZM8.125 9.9067V10.4464C8.125 10.5944 8.04109 10.7143 7.9375 10.7143H7.5625C7.45891 10.7143 7.375 10.5944 7.375 10.4464V9.901C7.11039 9.88158 6.85305 9.74966 6.63977 9.52098C6.54836 9.42288 6.54367 9.22734 6.62641 9.11451L6.9018 8.73917C6.96672 8.65078 7.06328 8.64676 7.13922 8.71473C7.22992 8.79576 7.33281 8.83929 7.43969 8.83929H8.09852C8.25086 8.83929 8.37508 8.64107 8.37508 8.39766C8.37508 8.19844 8.29047 8.02299 8.16953 7.97143L7.11484 7.51942C6.67914 7.33259 6.37469 6.73527 6.37469 6.06663C6.37469 5.24565 6.82117 4.57868 7.37477 4.55759V4.01786C7.37477 3.86987 7.45867 3.75 7.56227 3.75H7.93727C8.04086 3.75 8.12477 3.86987 8.12477 4.01786V4.56328C8.38938 4.5827 8.64672 4.71429 8.86 4.9433C8.95141 5.04141 8.95609 5.23694 8.87336 5.34978L8.59797 5.72511C8.53305 5.8135 8.43648 5.81752 8.36055 5.74955C8.26984 5.66819 8.16695 5.625 8.06008 5.625H7.40125C7.24891 5.625 7.12469 5.82321 7.12469 6.06663C7.12469 6.26585 7.2093 6.44129 7.33023 6.49286L8.38492 6.94487C8.82062 7.1317 9.12508 7.72902 9.12508 8.39766C9.12508 9.21897 8.67859 9.8856 8.125 9.9067ZM13.75 9.375C13.75 9.52299 13.6661 9.64286 13.5625 9.64286H10.9375C10.8339 9.64286 10.75 9.52299 10.75 9.375V8.83929C10.75 8.69129 10.8339 8.57143 10.9375 8.57143H13.5625C13.6661 8.57143 13.75 8.69129 13.75 8.83929V9.375ZM17.5 9.375C17.5 9.52299 17.4161 9.64286 17.3125 9.64286H15.4375C15.3339 9.64286 15.25 9.52299 15.25 9.375V8.83929C15.25 8.69129 15.3339 8.57143 15.4375 8.57143H17.3125C17.4161 8.57143 17.5 8.69129 17.5 8.83929V9.375ZM17.5 6.16071C17.5 6.30871 17.4161 6.42857 17.3125 6.42857H10.9375C10.8339 6.42857 10.75 6.30871 10.75 6.16071V5.625C10.75 5.47701 10.8339 5.35714 10.9375 5.35714H17.3125C17.4161 5.35714 17.5 5.47701 17.5 5.625V6.16071Z" fill="#FFB800"/>
</g>
<defs>
<filter id="filter0_d" x="0" y="0" width="23" height="23" filterUnits="userSpaceOnUse" color-interpolation-filters="sRGB">
<feFlood flood-opacity="0" result="BackgroundImageFix"/>
<feColorMatrix in="SourceAlpha" type="matrix" values="0 0 0 0 0 0 0 0 0 0 0 0 0 0 0 0 0 0 127 0"/>
<feOffset dy="4"/>
<feGaussianBlur stdDeviation="2"/>
<feColorMatrix type="matrix" values="0 0 0 0 0 0 0 0 0 0 0 0 0 0 0 0 0 0 0.25 0"/>
<feBlend mode="normal" in2="BackgroundImageFix" result="effect1_dropShadow"/>
<feBlend mode="normal" in="SourceGraphic" in2="effect1_dropShadow" result="shape"/>
</filter>
</defs>
</svg>
