<svg width="37" height="36" viewBox="0 0 37 36" fill="none" xmlns="http://www.w3.org/2000/svg">
<path d="M35.6559 1.73041L28.1404 0.0429469C27.3238 -0.139862 26.4856 0.274973 26.1531 1.02027L22.6845 8.8951C22.381 9.58415 22.5833 10.3927 23.1831 10.8638L27.5623 14.3512C24.9608 19.7441 20.4154 24.2299 14.7571 26.8104L11.1728 22.5495C10.6814 21.9659 9.85758 21.7691 9.14939 22.0644L1.05581 25.4393C0.282583 25.7697 -0.143776 26.5854 0.0441112 27.3799L1.77845 34.6922C1.95911 35.4516 2.65285 36 3.46943 36C21.9763 36 37 21.4105 37 3.37569C37 2.58821 36.4436 1.90619 35.6559 1.73041Z" fill="#FFB800"/>
</svg>
