<svg width="23" height="23" viewBox="0 0 23 23" fill="none" xmlns="http://www.w3.org/2000/svg">
<g filter="url(#filter0_d)">
<path d="M11.5 2.90323C9.89718 2.90323 8.59677 4.20363 8.59677 5.80645C8.59677 7.40927 9.89718 8.70968 11.5 8.70968C13.1028 8.70968 14.4032 7.40927 14.4032 5.80645C14.4032 4.20363 13.1028 2.90323 11.5 2.90323ZM11.5 7.25806C10.6986 7.25806 10.0484 6.60786 10.0484 5.80645C10.0484 5.00504 10.6986 4.35484 11.5 4.35484C12.3014 4.35484 12.9516 5.00504 12.9516 5.80645C12.9516 6.60786 12.3014 7.25806 11.5 7.25806ZM11.5 0C7.35685 0 4 3.35685 4 7.5C4 11.6431 7.35685 15 11.5 15C15.6431 15 19 11.6431 19 7.5C19 3.35685 15.6431 0 11.5 0ZM11.5 13.5484C9.99698 13.5484 8.62399 12.995 7.56552 12.0847C8.01613 11.3891 8.7873 10.9173 9.67036 10.8901C10.2994 11.0837 10.8982 11.1804 11.5 11.1804C12.1018 11.1804 12.7006 11.0867 13.3296 10.8901C14.2127 10.9204 14.9839 11.3891 15.4345 12.0847C14.376 12.995 13.003 13.5484 11.5 13.5484ZM16.4204 11.005C15.6825 10.0554 14.5423 9.43548 13.2419 9.43548C12.9335 9.43548 12.4556 9.72581 11.5 9.72581C10.5474 9.72581 10.0665 9.43548 9.75806 9.43548C8.46069 9.43548 7.32056 10.0554 6.57964 11.005C5.87198 10.0161 5.45161 8.80645 5.45161 7.5C5.45161 4.16431 8.16431 1.45161 11.5 1.45161C14.8357 1.45161 17.5484 4.16431 17.5484 7.5C17.5484 8.80645 17.128 10.0161 16.4204 11.005Z" fill="#FFB800"/>
</g>
<defs>
<filter id="filter0_d" x="0" y="0" width="23" height="23" filterUnits="userSpaceOnUse" color-interpolation-filters="sRGB">
<feFlood flood-opacity="0" result="BackgroundImageFix"/>
<feColorMatrix in="SourceAlpha" type="matrix" values="0 0 0 0 0 0 0 0 0 0 0 0 0 0 0 0 0 0 127 0"/>
<feOffset dy="4"/>
<feGaussianBlur stdDeviation="2"/>
<feColorMatrix type="matrix" values="0 0 0 0 0 0 0 0 0 0 0 0 0 0 0 0 0 0 0.25 0"/>
<feBlend mode="normal" in2="BackgroundImageFix" result="effect1_dropShadow"/>
<feBlend mode="normal" in="SourceGraphic" in2="effect1_dropShadow" result="shape"/>
</filter>
</defs>
</svg>
