<svg width="20" height="21" viewBox="0 0 20 21" fill="none" xmlns="http://www.w3.org/2000/svg">
<path d="M15 10.3008H5V12.8008H15V10.3008ZM19.6354 4.40234L14.5365 0.574219C14.3021 0.398438 13.9844 0.300781 13.651 0.300781H13.3333V5.30078H20V5.0625C20 4.81641 19.8698 4.57812 19.6354 4.40234ZM11.6667 5.61328V0.300781H1.25C0.557292 0.300781 0 0.71875 0 1.23828V19.3633C0 19.8828 0.557292 20.3008 1.25 20.3008H18.75C19.4427 20.3008 20 19.8828 20 19.3633V6.55078H12.9167C12.2292 6.55078 11.6667 6.12891 11.6667 5.61328ZM3.33333 3.11328C3.33333 2.94062 3.51979 2.80078 3.75 2.80078H7.91667C8.14687 2.80078 8.33333 2.94062 8.33333 3.11328V3.73828C8.33333 3.91094 8.14687 4.05078 7.91667 4.05078H3.75C3.51979 4.05078 3.33333 3.91094 3.33333 3.73828V3.11328ZM3.33333 5.61328C3.33333 5.44063 3.51979 5.30078 3.75 5.30078H7.91667C8.14687 5.30078 8.33333 5.44063 8.33333 5.61328V6.23828C8.33333 6.41094 8.14687 6.55078 7.91667 6.55078H3.75C3.51979 6.55078 3.33333 6.41094 3.33333 6.23828V5.61328ZM16.6667 17.4883C16.6667 17.6609 16.4802 17.8008 16.25 17.8008H12.0833C11.8531 17.8008 11.6667 17.6609 11.6667 17.4883V16.8633C11.6667 16.6906 11.8531 16.5508 12.0833 16.5508H16.25C16.4802 16.5508 16.6667 16.6906 16.6667 16.8633V17.4883ZM16.6667 9.67578V13.4258C16.6667 13.7711 16.2937 14.0508 15.8333 14.0508H4.16667C3.70625 14.0508 3.33333 13.7711 3.33333 13.4258V9.67578C3.33333 9.33047 3.70625 9.05078 4.16667 9.05078H15.8333C16.2937 9.05078 16.6667 9.33047 16.6667 9.67578Z" fill="white"/>
</svg>
