<svg width="117" height="91" viewBox="0 0 117 91" fill="none" xmlns="http://www.w3.org/2000/svg">
<g filter="url(#filter0_d)">
<path d="M81.25 41.5H27.75V51.625H81.25V41.5ZM106.049 17.6113L78.7701 2.10742C77.5162 1.39551 75.8164 1 74.0331 1H72.3333V21.25H108V20.285C108 19.2883 107.303 18.3232 106.049 17.6113ZM63.4167 22.5156V1H7.6875C3.98151 1 1 2.69277 1 4.79688V78.2031C1 80.3072 3.98151 82 7.6875 82H101.313C105.018 82 108 80.3072 108 78.2031V26.3125H70.1042C66.426 26.3125 63.4167 24.6039 63.4167 22.5156ZM18.8333 12.3906C18.8333 11.6914 19.8309 11.125 21.0625 11.125H43.3542C44.5858 11.125 45.5833 11.6914 45.5833 12.3906V14.9219C45.5833 15.6211 44.5858 16.1875 43.3542 16.1875H21.0625C19.8309 16.1875 18.8333 15.6211 18.8333 14.9219V12.3906ZM18.8333 22.5156C18.8333 21.8164 19.8309 21.25 21.0625 21.25H43.3542C44.5858 21.25 45.5833 21.8164 45.5833 22.5156V25.0469C45.5833 25.7461 44.5858 26.3125 43.3542 26.3125H21.0625C19.8309 26.3125 18.8333 25.7461 18.8333 25.0469V22.5156ZM90.1667 70.6094C90.1667 71.3086 89.1691 71.875 87.9375 71.875H65.6458C64.4142 71.875 63.4167 71.3086 63.4167 70.6094V68.0781C63.4167 67.3789 64.4142 66.8125 65.6458 66.8125H87.9375C89.1691 66.8125 90.1667 67.3789 90.1667 68.0781V70.6094ZM90.1667 38.9688V54.1562C90.1667 55.5548 88.1716 56.6875 85.7083 56.6875H23.2917C20.8284 56.6875 18.8333 55.5548 18.8333 54.1562V38.9688C18.8333 37.5702 20.8284 36.4375 23.2917 36.4375H85.7083C88.1716 36.4375 90.1667 37.5702 90.1667 38.9688Z" fill="#FFFEFC"/>
</g>
<defs>
<filter id="filter0_d" x="0" y="0" width="117" height="91" filterUnits="userSpaceOnUse" color-interpolation-filters="sRGB">
<feFlood flood-opacity="0" result="BackgroundImageFix"/>
<feColorMatrix in="SourceAlpha" type="matrix" values="0 0 0 0 0 0 0 0 0 0 0 0 0 0 0 0 0 0 127 0"/>
<feOffset dx="4" dy="4"/>
<feGaussianBlur stdDeviation="2.5"/>
<feColorMatrix type="matrix" values="0 0 0 0 0 0 0 0 0 0 0 0 0 0 0 0 0 0 0.25 0"/>
<feBlend mode="normal" in2="BackgroundImageFix" result="effect1_dropShadow"/>
<feBlend mode="normal" in="SourceGraphic" in2="effect1_dropShadow" result="shape"/>
</filter>
</defs>
</svg>
