<svg width="41" height="48" viewBox="0 0 41 48" fill="none" xmlns="http://www.w3.org/2000/svg">
<rect y="11.6367" width="33.153" height="30.4609" rx="5" fill="#CC9563"/>
<path d="M9.77516 29.36C9.77516 29.16 9.97516 29.06 10.3752 29.06C10.7752 29.06 11.0552 29.2 11.2152 29.48C11.4952 31.04 12.0952 32.18 13.0152 32.9C13.6952 33.46 14.4552 33.74 15.2952 33.74C16.1352 33.74 16.7552 33.52 17.1552 33.08C17.5552 32.64 17.7552 32.16 17.7552 31.64C17.7552 31.12 17.6152 30.7 17.3352 30.38C17.0952 30.02 16.7752 29.72 16.3752 29.48C16.0152 29.24 15.5952 29 15.1152 28.76C13.3552 27.96 11.8752 27 10.6752 25.88C9.87516 25.12 9.47516 24.16 9.47516 23C9.47516 21.8 9.71516 20.86 10.1952 20.18C10.6752 19.5 11.2752 18.94 11.9952 18.5C13.3552 17.66 14.9752 17.24 16.8552 17.24C17.7752 17.24 18.5752 17.34 19.2552 17.54C19.9352 17.7 20.6152 17.86 21.2952 18.02C21.5352 19.02 21.7352 20.04 21.8952 21.08C22.0552 22.12 22.1352 22.74 22.1352 22.94C22.1352 23.1 21.9552 23.18 21.5952 23.18C21.2352 23.18 20.9352 23.06 20.6952 22.82C20.3752 21.66 20.0152 20.82 19.6152 20.3C18.7752 19.34 17.7352 18.86 16.4952 18.86C15.8152 18.86 15.2552 19.04 14.8152 19.4C14.4152 19.76 14.2152 20.24 14.2152 20.84C14.2152 21.44 14.3352 21.92 14.5752 22.28C14.8552 22.64 15.1752 22.96 15.5352 23.24C15.9352 23.48 16.3752 23.7 16.8552 23.9C17.3352 24.1 17.8152 24.32 18.2952 24.56C18.7752 24.76 19.2752 25 19.7952 25.28C20.3152 25.56 20.7752 25.9 21.1752 26.3C22.0952 27.22 22.5552 28.3 22.5552 29.54C22.5552 30.74 22.3352 31.68 21.8952 32.36C21.4552 33.04 20.8752 33.6 20.1552 34.04C18.7952 34.88 16.9952 35.3 14.7552 35.3C13.8352 35.3 12.9552 35.2 12.1152 35C11.2752 34.76 10.5952 34.58 10.0752 34.46C9.99516 33.9 9.93516 33.18 9.89516 32.3C9.85516 31.38 9.81516 30.7 9.77516 30.26C9.77516 29.78 9.77516 29.48 9.77516 29.36Z" fill="#E5E5E5"/>
</svg>
