<svg width="20" height="21" viewBox="0 0 20 21" fill="none" xmlns="http://www.w3.org/2000/svg">
<g clip-path="url(#clip0)">
<path d="M15.7143 6.55078V5.30078C15.7143 2.54375 13.1508 0.300781 10 0.300781C6.84911 0.300781 4.28571 2.54375 4.28571 5.30078V6.55078H0V17.1758C0 18.9017 1.59897 20.3008 3.57143 20.3008H16.4286C18.401 20.3008 20 18.9017 20 17.1758V6.55078H15.7143ZM7.14286 5.30078C7.14286 3.92227 8.42455 2.80078 10 2.80078C11.5754 2.80078 12.8571 3.92227 12.8571 5.30078V6.55078H7.14286V5.30078ZM14.2857 9.98828C13.694 9.98828 13.2143 9.56855 13.2143 9.05078C13.2143 8.53301 13.694 8.11328 14.2857 8.11328C14.8775 8.11328 15.3571 8.53301 15.3571 9.05078C15.3571 9.56855 14.8775 9.98828 14.2857 9.98828ZM5.71429 9.98828C5.12254 9.98828 4.64286 9.56855 4.64286 9.05078C4.64286 8.53301 5.12254 8.11328 5.71429 8.11328C6.30603 8.11328 6.78571 8.53301 6.78571 9.05078C6.78571 9.56855 6.30603 9.98828 5.71429 9.98828Z" fill="white"/>
</g>
<defs>
<clipPath id="clip0">
<rect width="20" height="20" fill="white" transform="translate(0 0.300781)"/>
</clipPath>
</defs>
</svg>
