<svg width="27" height="28" viewBox="0 0 27 28" fill="none" xmlns="http://www.w3.org/2000/svg">
<rect y="0.300781" width="27" height="27" rx="13.5" fill="#07BAE0"/>
<path d="M20.796 19.2692L17.8749 16.3486C17.743 16.2168 17.5643 16.1436 17.3768 16.1436H16.8992C17.7079 15.1095 18.1884 13.8088 18.1884 12.3939C18.1884 9.02805 15.4607 6.30078 12.0942 6.30078C8.72774 6.30078 6 9.02805 6 12.3939C6 15.7598 8.72774 18.4871 12.0942 18.4871C13.5093 18.4871 14.8102 18.0067 15.8445 17.1982V17.6756C15.8445 17.8631 15.9177 18.0418 16.0496 18.1736L18.9707 21.0943C19.2461 21.3696 19.6914 21.3696 19.9639 21.0943L20.7931 20.2652C21.0685 19.9899 21.0685 19.5446 20.796 19.2692ZM12.0942 16.1436C10.0228 16.1436 8.34392 14.468 8.34392 12.3939C8.34392 10.3228 10.0198 8.6443 12.0942 8.6443C14.1656 8.6443 15.8445 10.3199 15.8445 12.3939C15.8445 14.465 14.1686 16.1436 12.0942 16.1436Z" fill="white"/>
</svg>
