<svg width="21" height="22" viewBox="0 0 21 22" fill="none" xmlns="http://www.w3.org/2000/svg">
<path d="M10.5 0.300781C4.6996 0.300781 0 5.00038 0 10.8008C0 16.6012 4.6996 21.3008 10.5 21.3008C16.3004 21.3008 21 16.6012 21 10.8008C21 5.00038 16.3004 0.300781 10.5 0.300781ZM10.5 4.3653C12.5577 4.3653 14.2258 6.03344 14.2258 8.0911C14.2258 10.1488 12.5577 11.8169 10.5 11.8169C8.44234 11.8169 6.77419 10.1488 6.77419 8.0911C6.77419 6.03344 8.44234 4.3653 10.5 4.3653ZM10.5 18.9298C8.01472 18.9298 5.7877 17.8036 4.29738 16.0423C5.09335 14.5435 6.65141 13.5105 8.46774 13.5105C8.56936 13.5105 8.67097 13.5274 8.76835 13.557C9.31875 13.7349 9.89456 13.8492 10.5 13.8492C11.1054 13.8492 11.6855 13.7349 12.2317 13.557C12.329 13.5274 12.4306 13.5105 12.5323 13.5105C14.3486 13.5105 15.9067 14.5435 16.7026 16.0423C15.2123 17.8036 12.9853 18.9298 10.5 18.9298Z" fill="#F5F5F5"/>
</svg>
