<svg width="20" height="21" viewBox="0 0 20 21" fill="none" xmlns="http://www.w3.org/2000/svg">
<g clip-path="url(#clip0)" filter="url(#filter0_d)">
<path d="M0.484863 6.0831L9.58408 10.2108C9.8497 10.3315 10.1501 10.3315 10.4157 10.2108L19.5149 6.0831C20.1614 5.78974 20.1614 4.81279 19.5149 4.51943L10.4161 0.391307C10.2856 0.331655 10.1438 0.300781 10.0003 0.300781C9.85679 0.300781 9.71498 0.331655 9.58447 0.391307L0.484863 4.51904C-0.161621 4.8124 -0.161621 5.78974 0.484863 6.0831ZM19.5153 9.53154L17.2462 8.50302L10.9321 11.3651C10.6368 11.4991 10.3231 11.5671 10.0001 11.5671C9.67705 11.5671 9.36377 11.4991 9.06806 11.3651L2.75439 8.50302L0.484863 9.53154C-0.161621 9.82451 -0.161621 10.8011 0.484863 11.094L9.58408 15.2186C9.8497 15.339 10.1501 15.339 10.4157 15.2186L19.5153 11.094C20.1618 10.8011 20.1618 9.82451 19.5153 9.53154ZM19.5153 14.5237L17.2548 13.4991L10.9321 16.3651C10.6368 16.4991 10.3231 16.5671 10.0001 16.5671C9.67705 16.5671 9.36377 16.4991 9.06806 16.3651L2.7458 13.4991L0.484863 14.5237C-0.161621 14.8167 -0.161621 15.7933 0.484863 16.0862L9.58408 20.2108C9.8497 20.3311 10.1501 20.3311 10.4157 20.2108L19.5153 16.0862C20.1618 15.7933 20.1618 14.8167 19.5153 14.5237Z" fill="white"/>
</g>
<defs>
<filter id="filter0_d" x="0" y="0.300781" width="20" height="20" filterUnits="userSpaceOnUse" color-interpolation-filters="sRGB">
<feFlood flood-opacity="0" result="BackgroundImageFix"/>
<feColorMatrix in="SourceAlpha" type="matrix" values="0 0 0 0 0 0 0 0 0 0 0 0 0 0 0 0 0 0 127 0"/>
<feOffset/>
<feColorMatrix type="matrix" values="0 0 0 0 0 0 0 0 0 0 0 0 0 0 0 0 0 0 0.25 0"/>
<feBlend mode="normal" in2="BackgroundImageFix" result="effect1_dropShadow"/>
<feBlend mode="normal" in="SourceGraphic" in2="effect1_dropShadow" result="shape"/>
</filter>
<clipPath id="clip0">
<rect width="20" height="20" fill="white" transform="translate(0 0.300781)"/>
</clipPath>
</defs>
</svg>
