<svg width="20" height="21" viewBox="0 0 20 21" fill="none" xmlns="http://www.w3.org/2000/svg">
<g filter="url(#filter0_d)">
<path d="M19.996 7.13672C19.6405 4.18359 16.9335 1.96484 13.8125 0.9375C15.2343 2.47656 16.2499 4.86719 16.2499 7.80078H17.3476L12.7929 12.8594C12.6953 12.8359 12.6054 12.8008 12.5 12.8008H10.625V7.80078H14.9999C14.9999 3.30078 12.3086 0.300781 10 0.300781C7.69143 0.300781 5.00005 3.30078 5.00005 7.80078H9.37501V12.8008H7.50003C7.39456 12.8008 7.30472 12.8359 7.20706 12.8594L2.65242 7.80078H3.75007C3.75007 4.86719 4.76568 2.47656 6.18754 0.9375C3.06648 1.96875 0.359475 4.1875 0.00401025 7.13672C-0.0389581 7.49219 0.269633 7.80078 0.629004 7.80078H0.968844L6.30863 13.7344C6.28129 13.8359 6.24613 13.9375 6.24613 14.0508V19.0508C6.24613 19.7422 6.80472 20.3008 7.49612 20.3008H12.4961C13.1875 20.3008 13.7461 19.7422 13.7461 19.0508V14.0508C13.7461 13.9375 13.7109 13.8398 13.6836 13.7344L19.0273 7.80078H19.3671C19.7304 7.80078 20.039 7.49609 19.996 7.13672Z" fill="white"/>
</g>
<defs>
<filter id="filter0_d" x="0" y="0.300781" width="20" height="20" filterUnits="userSpaceOnUse" color-interpolation-filters="sRGB">
<feFlood flood-opacity="0" result="BackgroundImageFix"/>
<feColorMatrix in="SourceAlpha" type="matrix" values="0 0 0 0 0 0 0 0 0 0 0 0 0 0 0 0 0 0 127 0"/>
<feOffset/>
<feColorMatrix type="matrix" values="0 0 0 0 0 0 0 0 0 0 0 0 0 0 0 0 0 0 0.25 0"/>
<feBlend mode="normal" in2="BackgroundImageFix" result="effect1_dropShadow"/>
<feBlend mode="normal" in="SourceGraphic" in2="effect1_dropShadow" result="shape"/>
</filter>
</defs>
</svg>
