<svg width="117" height="91" viewBox="0 0 117 91" fill="none" xmlns="http://www.w3.org/2000/svg">
<g filter="url(#filter0_d)">
<path d="M107.979 28.6855C106.077 16.7254 91.5943 7.73945 74.8967 3.57871C82.5036 9.81191 87.9372 19.4939 87.9372 31.375H93.8096L69.4422 51.8623C68.9198 51.7674 68.4391 51.625 67.8749 51.625H57.8437V31.375H81.2497C81.2497 13.15 66.8509 1 54.5 1C42.1492 1 27.7503 13.15 27.7503 31.375H51.1563V51.625H41.1251C40.5609 51.625 40.0802 51.7674 39.5578 51.8623L15.1904 31.375H21.0628C21.0628 19.4939 26.4964 9.81191 34.1033 3.57871C17.4057 7.75527 2.92319 16.7412 1.02145 28.6855C0.791574 30.1252 2.44253 31.375 4.36517 31.375H6.18332L34.7512 55.4061C34.6049 55.8174 34.4168 56.2287 34.4168 56.6875V76.9375C34.4168 79.7377 37.4053 82 41.1042 82H67.854C71.553 82 74.5414 79.7377 74.5414 76.9375V56.6875C74.5414 56.2287 74.3533 55.8332 74.207 55.4061L102.796 31.375H104.614C106.557 31.375 108.208 30.141 107.979 28.6855Z" fill="#FFFEFC"/>
</g>
<defs>
<filter id="filter0_d" x="0" y="0" width="117" height="91" filterUnits="userSpaceOnUse" color-interpolation-filters="sRGB">
<feFlood flood-opacity="0" result="BackgroundImageFix"/>
<feColorMatrix in="SourceAlpha" type="matrix" values="0 0 0 0 0 0 0 0 0 0 0 0 0 0 0 0 0 0 127 0"/>
<feOffset dx="4" dy="4"/>
<feGaussianBlur stdDeviation="2.5"/>
<feColorMatrix type="matrix" values="0 0 0 0 0 0 0 0 0 0 0 0 0 0 0 0 0 0 0.25 0"/>
<feBlend mode="normal" in2="BackgroundImageFix" result="effect1_dropShadow"/>
<feBlend mode="normal" in="SourceGraphic" in2="effect1_dropShadow" result="shape"/>
</filter>
</defs>
</svg>
