<svg width="12" height="15" viewBox="0 0 12 15" fill="none" xmlns="http://www.w3.org/2000/svg">
<path d="M10.7665 3.73827C10.7741 3.90232 10.7741 4.06641 10.7741 4.23047C10.7741 9.23435 8.29953 15 3.77666 15C2.38325 15 1.08884 14.3789 0 13.3008C0.197977 13.3359 0.388314 13.3477 0.593909 13.3477C1.74364 13.3477 2.80203 12.75 3.64722 11.7305C2.56599 11.6953 1.6599 10.6055 1.34771 9.10547C1.50001 9.1406 1.65228 9.16405 1.81219 9.16405C2.033 9.16405 2.25383 9.11715 2.4594 9.03516C1.3325 8.68357 0.487291 7.16015 0.487291 5.32031V5.27345C0.814691 5.5547 1.19543 5.73048 1.59896 5.75389C0.936519 5.07419 0.502525 3.91405 0.502525 2.60154C0.502525 1.89842 0.624331 1.25389 0.837542 0.691389C2.04821 2.98826 3.86802 4.48824 5.90862 4.65233C5.87055 4.37108 5.8477 4.07814 5.8477 3.78516C5.8477 1.6992 6.94416 0 8.3071 0C9.01522 0 9.65481 0.45703 10.1041 1.19531C10.6599 1.03126 11.1929 0.714835 11.665 0.281252C11.4822 1.16018 11.0939 1.89846 10.5838 2.36718C11.0787 2.28519 11.5584 2.0742 12 1.78126C11.665 2.53123 11.2462 3.19917 10.7665 3.73827V3.73827Z" fill="white"/>
</svg>
